# MagicaVoxel @ Ephtracy

# group
o 

# material
mtllib untitled.mtl
usemtl palette

# normals
vn -1 0 0
vn 1 0 0
vn 0 0 1
vn 0 0 -1
vn 0 -1 0
vn 0 1 0

# texcoords
vt 0.0332031 0.5
vt 0.275391 0.5
vt 0.373047 0.5
vt 0.396484 0.5
vt 0.646484 0.5
vt 0.712891 0.5
vt 0.716797 0.5
vt 0.892578 0.5
vt 0.896484 0.5
vt 0.947266 0.5
vt 0.951172 0.5

# verts
v 0 2.5 -0.2
v 0 2.5 -0.8
v 0 2.6 -0.3
v 0 2.6 -0.7
v 0 2.7 -0.3
v 0 2.7 -0.4
v 0 2.7 -0.6
v 0 2.7 -0.7
v 0 2.9 -0.3
v 0 2.9 -0.4
v 0 2.9 -0.6
v 0 2.9 -0.7
v 0 3 -0.2
v 0 3 -0.3
v 0 3 -0.4
v 0 3 -0.6
v 0 3 -0.7
v 0 3 -0.8
v 0 3.2 -0.2
v 0 3.2 -0.4
v 0 3.2 -0.6
v 0 3.2 -0.8
v 0.1 2.6 -0.1
v 0.1 2.6 -0.2
v 0.1 2.6 -0.8
v 0.1 2.6 -0.9
v 0.1 3 -0.2
v 0.1 3 -0.8
v 0.1 3.1 -0.1
v 0.1 3.1 -0.2
v 0.1 3.1 -0.8
v 0.1 3.1 -0.9
v 0.2 2.2 -0.3
v 0.2 2.2 -0.7
v 0.2 2.3 -0.3
v 0.2 2.3 -0.4
v 0.2 2.3 -0.6
v 0.2 2.3 -0.7
v 0.2 2.4 -0.3
v 0.2 2.4 -0.4
v 0.2 2.4 -0.6
v 0.2 2.4 -0.7
v 0.2 2.5 -0.3
v 0.2 2.5 -0.4
v 0.2 2.5 -0.6
v 0.2 2.5 -0.7
v 0.3 2 -0.3
v 0.3 2 -0.4
v 0.3 2 -0.6
v 0.3 2 -0.7
v 0.3 2.1 -0.3
v 0.3 2.1 -0.4
v 0.3 2.1 -0.6
v 0.3 2.1 -0.7
v 0.3 2.2 -0.3
v 0.3 2.2 -0.4
v 0.3 2.2 -0.6
v 0.3 2.2 -0.7
v 0.3 2.4 0
v 0.3 2.4 -0.1
v 0.3 2.4 -0.3
v 0.3 2.4 -0.7
v 0.3 2.4 -0.9
v 0.3 2.4 -1
v 0.3 2.5 0
v 0.3 2.5 -0.1
v 0.3 2.5 -0.2
v 0.3 2.5 -0.3
v 0.3 2.5 -0.7
v 0.3 2.5 -0.8
v 0.3 2.5 -0.9
v 0.3 2.5 -1
v 0.3 3.2 -0.4
v 0.3 3.2 -0.5
v 0.3 3.3 -0.4
v 0.3 3.3 -0.5
v 0.3 3.4 0
v 0.3 3.4 -0.1
v 0.3 3.4 -0.3
v 0.3 3.4 -0.4
v 0.3 3.4 -0.5
v 0.3 3.5 0
v 0.3 3.5 -0.1
v 0.3 3.5 -0.2
v 0.3 3.5 -0.3
v 0.3 3.5 -0.4
v 0.3 3.5 -0.5
v 0.3 3.6 0
v 0.3 3.6 -0.1
v 0.3 3.6 -0.2
v 0.3 3.6 -0.3
v 0.4 3.2 -0.5
v 0.4 3.2 -0.6
v 0.4 3.3 -0.5
v 0.4 3.3 -0.6
v 0.4 3.4 -0.5
v 0.4 3.4 -0.6
v 0.4 3.4 -0.7
v 0.4 3.4 -0.9
v 0.4 3.4 -1
v 0.4 3.5 -0.5
v 0.4 3.5 -0.6
v 0.4 3.5 -0.7
v 0.4 3.5 -0.8
v 0.4 3.5 -0.9
v 0.4 3.5 -1
v 0.4 3.6 -0.7
v 0.4 3.6 -0.8
v 0.4 3.6 -0.9
v 0.4 3.6 -1
v 0.4 2 -0.3
v 0.4 2 -0.4
v 0.4 2 -0.6
v 0.4 2 -0.7
v 0.4 2.1 -0.3
v 0.4 2.1 -0.4
v 0.4 2.1 -0.6
v 0.4 2.1 -0.7
v 0.4 2.2 -0.3
v 0.4 2.2 -0.4
v 0.4 2.2 -0.6
v 0.4 2.2 -0.7
v 0.4 2.4 0
v 0.4 2.4 -0.1
v 0.4 2.4 -0.3
v 0.4 2.4 -0.7
v 0.4 2.4 -0.9
v 0.4 2.4 -1
v 0.4 2.5 0
v 0.4 2.5 -0.1
v 0.4 2.5 -0.2
v 0.4 2.5 -0.3
v 0.4 2.5 -0.7
v 0.4 2.5 -0.8
v 0.4 2.5 -0.9
v 0.4 2.5 -1
v 0.4 3.2 -0.4
v 0.4 3.2 -0.5
v 0.4 3.3 -0.4
v 0.4 3.3 -0.5
v 0.4 3.4 0
v 0.4 3.4 -0.1
v 0.4 3.4 -0.3
v 0.4 3.4 -0.4
v 0.4 3.4 -0.5
v 0.4 3.5 0
v 0.4 3.5 -0.1
v 0.4 3.5 -0.2
v 0.4 3.5 -0.3
v 0.4 3.5 -0.4
v 0.4 3.5 -0.5
v 0.4 3.6 0
v 0.4 3.6 -0.1
v 0.4 3.6 -0.2
v 0.4 3.6 -0.3
v 0.5 2.2 -0.3
v 0.5 2.2 -0.7
v 0.5 2.3 -0.4
v 0.5 2.3 -0.6
v 0.5 2.5 -0.3
v 0.5 2.5 -0.4
v 0.5 2.5 -0.6
v 0.5 2.5 -0.7
v 0.5 3.2 -0.5
v 0.5 3.2 -0.6
v 0.5 3.3 -0.5
v 0.5 3.3 -0.6
v 0.5 3.4 -0.5
v 0.5 3.4 -0.6
v 0.5 3.4 -0.7
v 0.5 3.4 -0.9
v 0.5 3.4 -1
v 0.5 3.5 -0.5
v 0.5 3.5 -0.6
v 0.5 3.5 -0.7
v 0.5 3.5 -0.8
v 0.5 3.5 -0.9
v 0.5 3.5 -1
v 0.5 3.6 -0.7
v 0.5 3.6 -0.8
v 0.5 3.6 -0.9
v 0.5 3.6 -1
v 0.6 2.6 -0.1
v 0.6 2.6 -0.2
v 0.6 2.6 -0.8
v 0.6 2.6 -0.9
v 0.6 3 -0.2
v 0.6 3 -0.8
v 0.6 3.1 -0.1
v 0.6 3.1 -0.2
v 0.6 3.1 -0.8
v 0.6 3.1 -0.9
v 0.7 2.5 -0.2
v 0.7 2.5 -0.8
v 0.7 3 -0.2
v 0.7 3 -0.4
v 0.7 3 -0.6
v 0.7 3 -0.8
v 0.7 3.2 -0.2
v 0.7 3.2 -0.4
v 0.7 3.2 -0.6
v 0.7 3.2 -0.8
v 0.3 2.4 0
v 0.3 2.5 0
v 0.3 3.4 0
v 0.3 3.5 0
v 0.3 3.6 0
v 0.4 2.4 0
v 0.4 2.5 0
v 0.4 3.4 0
v 0.4 3.5 0
v 0.4 3.6 0
v 0.1 2.6 -0.1
v 0.1 3.1 -0.1
v 0.2 2.7 -0.1
v 0.2 3 -0.1
v 0.5 2.7 -0.1
v 0.5 3 -0.1
v 0.6 2.6 -0.1
v 0.6 3.1 -0.1
v 0 2.5 -0.2
v 0 3 -0.2
v 0 3.2 -0.2
v 0.1 2.6 -0.2
v 0.1 3 -0.2
v 0.1 3.1 -0.2
v 0.3 2.5 -0.2
v 0.4 2.5 -0.2
v 0.6 2.6 -0.2
v 0.6 3 -0.2
v 0.6 3.1 -0.2
v 0.7 2.5 -0.2
v 0.7 3 -0.2
v 0.7 3.2 -0.2
v 0.2 2.2 -0.3
v 0.2 2.3 -0.3
v 0.2 2.4 -0.3
v 0.2 2.5 -0.3
v 0.3 2 -0.3
v 0.3 2.1 -0.3
v 0.3 2.2 -0.3
v 0.3 2.3 -0.3
v 0.3 2.4 -0.3
v 0.3 2.5 -0.3
v 0.3 3.4 -0.3
v 0.3 3.5 -0.3
v 0.4 2 -0.3
v 0.4 2.1 -0.3
v 0.4 2.2 -0.3
v 0.4 2.3 -0.3
v 0.4 2.4 -0.3
v 0.4 2.5 -0.3
v 0.4 3.4 -0.3
v 0.4 3.5 -0.3
v 0.5 2.2 -0.3
v 0.5 2.5 -0.3
v 0.3 3.2 -0.4
v 0.3 3.3 -0.4
v 0.3 3.4 -0.4
v 0.4 3.2 -0.4
v 0.4 3.3 -0.4
v 0.4 3.4 -0.4
v 0.4 3.2 -0.5
v 0.4 3.3 -0.5
v 0.4 3.4 -0.5
v 0.4 3.5 -0.5
v 0.5 3.2 -0.5
v 0.5 3.3 -0.5
v 0.5 3.4 -0.5
v 0.5 3.5 -0.5
v 0.3 2 -0.6
v 0.3 2.1 -0.6
v 0.3 2.2 -0.6
v 0.4 2 -0.6
v 0.4 2.1 -0.6
v 0.4 2.2 -0.6
v 0.4 3.5 -0.7
v 0.4 3.6 -0.7
v 0.5 3.5 -0.7
v 0.5 3.6 -0.7
v 0.4 3.4 -0.9
v 0.4 3.5 -0.9
v 0.5 3.4 -0.9
v 0.5 3.5 -0.9
v 0.3 3.4 -0.1
v 0.3 3.5 -0.1
v 0.4 3.4 -0.1
v 0.4 3.5 -0.1
v 0.3 3.5 -0.3
v 0.3 3.6 -0.3
v 0.4 3.5 -0.3
v 0.4 3.6 -0.3
v 0.3 2 -0.4
v 0.3 2.1 -0.4
v 0.3 2.2 -0.4
v 0.4 2 -0.4
v 0.4 2.1 -0.4
v 0.4 2.2 -0.4
v 0.3 3.2 -0.5
v 0.3 3.3 -0.5
v 0.3 3.4 -0.5
v 0.3 3.5 -0.5
v 0.4 3.2 -0.5
v 0.4 3.3 -0.5
v 0.4 3.4 -0.5
v 0.4 3.5 -0.5
v 0.4 3.2 -0.6
v 0.4 3.3 -0.6
v 0.4 3.4 -0.6
v 0.5 3.2 -0.6
v 0.5 3.3 -0.6
v 0.5 3.4 -0.6
v 0.2 2.2 -0.7
v 0.2 2.3 -0.7
v 0.2 2.4 -0.7
v 0.2 2.5 -0.7
v 0.3 2 -0.7
v 0.3 2.1 -0.7
v 0.3 2.2 -0.7
v 0.3 2.3 -0.7
v 0.3 2.4 -0.7
v 0.3 2.5 -0.7
v 0.4 2 -0.7
v 0.4 2.1 -0.7
v 0.4 2.2 -0.7
v 0.4 2.3 -0.7
v 0.4 2.4 -0.7
v 0.4 2.5 -0.7
v 0.4 3.4 -0.7
v 0.4 3.5 -0.7
v 0.5 2.2 -0.7
v 0.5 2.5 -0.7
v 0.5 3.4 -0.7
v 0.5 3.5 -0.7
v 0 2.5 -0.8
v 0 3 -0.8
v 0 3.2 -0.8
v 0.1 2.6 -0.8
v 0.1 3 -0.8
v 0.1 3.1 -0.8
v 0.3 2.5 -0.8
v 0.4 2.5 -0.8
v 0.6 2.6 -0.8
v 0.6 3 -0.8
v 0.6 3.1 -0.8
v 0.7 2.5 -0.8
v 0.7 3 -0.8
v 0.7 3.2 -0.8
v 0.1 2.6 -0.9
v 0.1 3.1 -0.9
v 0.2 2.7 -0.9
v 0.2 3 -0.9
v 0.5 2.7 -0.9
v 0.5 3 -0.9
v 0.6 2.6 -0.9
v 0.6 3.1 -0.9
v 0.3 2.4 -1
v 0.3 2.5 -1
v 0.4 2.4 -1
v 0.4 2.5 -1
v 0.4 3.4 -1
v 0.4 3.5 -1
v 0.4 3.6 -1
v 0.5 3.4 -1
v 0.5 3.5 -1
v 0.5 3.6 -1
v 0.3 2 -0.3
v 0.4 2 -0.3
v 0.3 2 -0.4
v 0.4 2 -0.4
v 0.3 2 -0.6
v 0.4 2 -0.6
v 0.3 2 -0.7
v 0.4 2 -0.7
v 0.2 2.2 -0.3
v 0.3 2.2 -0.3
v 0.4 2.2 -0.3
v 0.5 2.2 -0.3
v 0.3 2.2 -0.4
v 0.4 2.2 -0.4
v 0.3 2.2 -0.6
v 0.4 2.2 -0.6
v 0.2 2.2 -0.7
v 0.3 2.2 -0.7
v 0.4 2.2 -0.7
v 0.5 2.2 -0.7
v 0.3 2.4 0
v 0.4 2.4 0
v 0.3 2.4 -0.1
v 0.4 2.4 -0.1
v 0.3 2.4 -0.3
v 0.4 2.4 -0.3
v 0.3 2.4 -0.7
v 0.4 2.4 -0.7
v 0.3 2.4 -0.9
v 0.4 2.4 -0.9
v 0.3 2.4 -1
v 0.4 2.4 -1
v 0 2.5 -0.2
v 0.3 2.5 -0.2
v 0.4 2.5 -0.2
v 0.7 2.5 -0.2
v 0.1 2.5 -0.3
v 0.2 2.5 -0.3
v 0.3 2.5 -0.3
v 0.4 2.5 -0.3
v 0.5 2.5 -0.3
v 0.6 2.5 -0.3
v 0.2 2.5 -0.4
v 0.5 2.5 -0.4
v 0.2 2.5 -0.6
v 0.5 2.5 -0.6
v 0.1 2.5 -0.7
v 0.2 2.5 -0.7
v 0.3 2.5 -0.7
v 0.4 2.5 -0.7
v 0.5 2.5 -0.7
v 0.6 2.5 -0.7
v 0 2.5 -0.8
v 0.3 2.5 -0.8
v 0.4 2.5 -0.8
v 0.7 2.5 -0.8
v 0.1 2.6 -0.1
v 0.6 2.6 -0.1
v 0.1 2.6 -0.2
v 0.6 2.6 -0.2
v 0.1 2.6 -0.8
v 0.6 2.6 -0.8
v 0.1 2.6 -0.9
v 0.6 2.6 -0.9
v 0.3 3.4 0
v 0.4 3.4 0
v 0.3 3.4 -0.1
v 0.4 3.4 -0.1
v 0.3 3.4 -0.3
v 0.4 3.4 -0.3
v 0.3 3.4 -0.4
v 0.4 3.4 -0.4
v 0.4 3.4 -0.6
v 0.5 3.4 -0.6
v 0.4 3.4 -0.7
v 0.5 3.4 -0.7
v 0.4 3.4 -0.9
v 0.5 3.4 -0.9
v 0.4 3.4 -1
v 0.5 3.4 -1
v 0.3 3.5 -0.1
v 0.4 3.5 -0.1
v 0.3 3.5 -0.2
v 0.4 3.5 -0.2
v 0.3 3.5 -0.3
v 0.4 3.5 -0.3
v 0.4 3.5 -0.7
v 0.5 3.5 -0.7
v 0.4 3.5 -0.8
v 0.5 3.5 -0.8
v 0.4 3.5 -0.9
v 0.5 3.5 -0.9
v 0.3 2.5 0
v 0.4 2.5 0
v 0.3 2.5 -0.1
v 0.4 2.5 -0.1
v 0.3 2.5 -0.2
v 0.4 2.5 -0.2
v 0.3 2.5 -0.8
v 0.4 2.5 -0.8
v 0.3 2.5 -0.9
v 0.4 2.5 -0.9
v 0.3 2.5 -1
v 0.4 2.5 -1
v 0.1 3.1 -0.1
v 0.6 3.1 -0.1
v 0.1 3.1 -0.2
v 0.6 3.1 -0.2
v 0.1 3.1 -0.8
v 0.6 3.1 -0.8
v 0.1 3.1 -0.9
v 0.6 3.1 -0.9
v 0 3.2 -0.2
v 0.7 3.2 -0.2
v 0 3.2 -0.4
v 0.3 3.2 -0.4
v 0.4 3.2 -0.4
v 0.7 3.2 -0.4
v 0.3 3.2 -0.5
v 0.4 3.2 -0.5
v 0.5 3.2 -0.5
v 0 3.2 -0.6
v 0.4 3.2 -0.6
v 0.5 3.2 -0.6
v 0.7 3.2 -0.6
v 0 3.2 -0.8
v 0.7 3.2 -0.8
v 0.3 3.5 -0.3
v 0.4 3.5 -0.3
v 0.3 3.5 -0.4
v 0.4 3.5 -0.4
v 0.3 3.5 -0.5
v 0.4 3.5 -0.5
v 0.5 3.5 -0.5
v 0.4 3.5 -0.6
v 0.5 3.5 -0.6
v 0.4 3.5 -0.7
v 0.5 3.5 -0.7
v 0.3 3.6 0
v 0.4 3.6 0
v 0.3 3.6 -0.1
v 0.4 3.6 -0.1
v 0.3 3.6 -0.2
v 0.4 3.6 -0.2
v 0.3 3.6 -0.3
v 0.4 3.6 -0.3
v 0.4 3.6 -0.7
v 0.5 3.6 -0.7
v 0.4 3.6 -0.8
v 0.5 3.6 -0.8
v 0.4 3.6 -0.9
v 0.5 3.6 -0.9
v 0.4 3.6 -1
v 0.5 3.6 -1

# faces
f 3/3/1 2/3/1 1/3/1
f 4/3/1 2/3/1 3/3/1
f 5/3/1 3/3/1 1/3/1
f 5/11/1 4/11/1 3/11/1
f 6/11/1 4/11/1 5/11/1
f 7/11/1 4/11/1 6/11/1
f 8/3/1 2/3/1 4/3/1
f 8/11/1 4/11/1 7/11/1
f 9/3/1 5/3/1 1/3/1
f 9/6/1 6/6/1 5/6/1
f 10/11/1 7/11/1 6/11/1
f 10/6/1 6/6/1 9/6/1
f 11/6/1 8/6/1 7/6/1
f 11/11/1 7/11/1 10/11/1
f 12/3/1 2/3/1 8/3/1
f 12/6/1 8/6/1 11/6/1
f 13/3/1 9/3/1 1/3/1
f 14/11/1 11/11/1 10/11/1
f 14/3/1 9/3/1 13/3/1
f 14/11/1 10/11/1 9/11/1
f 14/11/1 12/11/1 11/11/1
f 15/11/1 12/11/1 14/11/1
f 16/11/1 12/11/1 15/11/1
f 17/3/1 2/3/1 12/3/1
f 17/11/1 12/11/1 16/11/1
f 18/3/1 2/3/1 17/3/1
f 19/4/1 14/4/1 13/4/1
f 19/4/1 15/4/1 14/4/1
f 20/3/1 16/3/1 15/3/1
f 20/4/1 15/4/1 19/4/1
f 21/4/1 18/4/1 17/4/1
f 21/3/1 16/3/1 20/3/1
f 21/4/1 17/4/1 16/4/1
f 22/4/1 18/4/1 21/4/1
f 27/3/1 24/3/1 23/3/1
f 28/3/1 26/3/1 25/3/1
f 29/3/1 27/3/1 23/3/1
f 30/3/1 27/3/1 29/3/1
f 31/3/1 26/3/1 28/3/1
f 32/3/1 26/3/1 31/3/1
f 35/5/1 34/5/1 33/5/1
f 36/5/1 34/5/1 35/5/1
f 37/5/1 34/5/1 36/5/1
f 38/5/1 34/5/1 37/5/1
f 39/7/1 36/7/1 35/7/1
f 40/2/1 37/2/1 36/2/1
f 40/7/1 36/7/1 39/7/1
f 41/7/1 38/7/1 37/7/1
f 41/2/1 37/2/1 40/2/1
f 42/7/1 38/7/1 41/7/1
f 43/5/1 40/5/1 39/5/1
f 44/2/1 41/2/1 40/2/1
f 44/5/1 40/5/1 43/5/1
f 45/5/1 42/5/1 41/5/1
f 45/2/1 41/2/1 44/2/1
f 46/5/1 42/5/1 45/5/1
f 51/10/1 48/10/1 47/10/1
f 52/10/1 48/10/1 51/10/1
f 53/10/1 50/10/1 49/10/1
f 54/10/1 50/10/1 53/10/1
f 55/5/1 52/5/1 51/5/1
f 56/5/1 52/5/1 55/5/1
f 57/5/1 54/5/1 53/5/1
f 58/5/1 54/5/1 57/5/1
f 65/1/1 60/1/1 59/1/1
f 66/2/1 61/2/1 60/2/1
f 66/1/1 60/1/1 65/1/1
f 67/2/1 61/2/1 66/2/1
f 68/2/1 61/2/1 67/2/1
f 69/2/1 63/2/1 62/2/1
f 70/2/1 63/2/1 69/2/1
f 71/1/1 64/1/1 63/1/1
f 71/2/1 63/2/1 70/2/1
f 72/1/1 64/1/1 71/1/1
f 75/8/1 74/8/1 73/8/1
f 76/8/1 74/8/1 75/8/1
f 80/9/1 76/9/1 75/9/1
f 81/9/1 76/9/1 80/9/1
f 82/9/1 78/9/1 77/9/1
f 83/9/1 78/9/1 82/9/1
f 85/9/1 80/9/1 79/9/1
f 86/8/1 81/8/1 80/8/1
f 86/9/1 80/9/1 85/9/1
f 87/8/1 81/8/1 86/8/1
f 88/8/1 83/8/1 82/8/1
f 89/9/1 84/9/1 83/9/1
f 89/8/1 83/8/1 88/8/1
f 90/8/1 85/8/1 84/8/1
f 90/9/1 84/9/1 89/9/1
f 91/8/1 85/8/1 90/8/1
f 94/8/1 93/8/1 92/8/1
f 95/8/1 93/8/1 94/8/1
f 96/9/1 95/9/1 94/9/1
f 97/9/1 95/9/1 96/9/1
f 101/8/1 97/8/1 96/8/1
f 102/9/1 98/9/1 97/9/1
f 102/8/1 97/8/1 101/8/1
f 103/9/1 98/9/1 102/9/1
f 105/9/1 100/9/1 99/9/1
f 106/9/1 100/9/1 105/9/1
f 107/8/1 104/8/1 103/8/1
f 108/9/1 105/9/1 104/9/1
f 108/8/1 104/8/1 107/8/1
f 109/8/1 106/8/1 105/8/1
f 109/9/1 105/9/1 108/9/1
f 110/8/1 106/8/1 109/8/1
f 111/10/2 112/10/2 115/10/2
f 115/10/2 112/10/2 116/10/2
f 113/10/2 114/10/2 117/10/2
f 117/10/2 114/10/2 118/10/2
f 115/5/2 116/5/2 119/5/2
f 119/5/2 116/5/2 120/5/2
f 117/5/2 118/5/2 121/5/2
f 121/5/2 118/5/2 122/5/2
f 123/1/2 124/1/2 129/1/2
f 124/2/2 125/2/2 130/2/2
f 129/1/2 124/1/2 130/1/2
f 130/2/2 125/2/2 131/2/2
f 131/2/2 125/2/2 132/2/2
f 126/2/2 127/2/2 133/2/2
f 133/2/2 127/2/2 134/2/2
f 127/1/2 128/1/2 135/1/2
f 134/2/2 127/2/2 135/2/2
f 135/1/2 128/1/2 136/1/2
f 137/8/2 138/8/2 139/8/2
f 139/8/2 138/8/2 140/8/2
f 139/9/2 140/9/2 144/9/2
f 144/9/2 140/9/2 145/9/2
f 141/9/2 142/9/2 146/9/2
f 146/9/2 142/9/2 147/9/2
f 143/9/2 144/9/2 149/9/2
f 144/8/2 145/8/2 150/8/2
f 149/9/2 144/9/2 150/9/2
f 150/8/2 145/8/2 151/8/2
f 146/8/2 147/8/2 152/8/2
f 147/9/2 148/9/2 153/9/2
f 152/8/2 147/8/2 153/8/2
f 148/8/2 149/8/2 154/8/2
f 153/9/2 148/9/2 154/9/2
f 154/8/2 149/8/2 155/8/2
f 156/5/2 157/5/2 158/5/2
f 158/5/2 157/5/2 159/5/2
f 156/5/2 158/5/2 160/5/2
f 158/6/2 159/6/2 161/6/2
f 160/5/2 158/5/2 161/5/2
f 159/5/2 157/5/2 162/5/2
f 161/6/2 159/6/2 162/6/2
f 162/5/2 157/5/2 163/5/2
f 164/8/2 165/8/2 166/8/2
f 166/8/2 165/8/2 167/8/2
f 166/9/2 167/9/2 168/9/2
f 168/9/2 167/9/2 169/9/2
f 168/8/2 169/8/2 173/8/2
f 169/9/2 170/9/2 174/9/2
f 173/8/2 169/8/2 174/8/2
f 174/9/2 170/9/2 175/9/2
f 171/9/2 172/9/2 177/9/2
f 177/9/2 172/9/2 178/9/2
f 175/8/2 176/8/2 179/8/2
f 176/9/2 177/9/2 180/9/2
f 179/8/2 176/8/2 180/8/2
f 177/8/2 178/8/2 181/8/2
f 180/9/2 177/9/2 181/9/2
f 181/8/2 178/8/2 182/8/2
f 183/3/2 184/3/2 187/3/2
f 185/3/2 186/3/2 188/3/2
f 183/3/2 187/3/2 189/3/2
f 189/3/2 187/3/2 190/3/2
f 188/3/2 186/3/2 191/3/2
f 191/3/2 186/3/2 192/3/2
f 193/3/2 194/3/2 195/3/2
f 195/3/2 194/3/2 196/3/2
f 196/3/2 194/3/2 197/3/2
f 197/3/2 194/3/2 198/3/2
f 195/4/2 196/4/2 199/4/2
f 196/3/2 197/3/2 200/3/2
f 199/4/2 196/4/2 200/4/2
f 197/4/2 198/4/2 201/4/2
f 200/3/2 197/3/2 201/3/2
f 201/4/2 198/4/2 202/4/2
f 208/1/3 204/1/3 203/1/3
f 209/1/3 204/1/3 208/1/3
f 210/9/3 206/9/3 205/9/3
f 211/8/3 207/8/3 206/8/3
f 211/9/3 206/9/3 210/9/3
f 212/8/3 207/8/3 211/8/3
f 215/3/3 214/3/3 213/3/3
f 216/3/3 214/3/3 215/3/3
f 217/3/3 215/3/3 213/3/3
f 217/4/3 216/4/3 215/4/3
f 218/3/3 214/3/3 216/3/3
f 218/4/3 216/4/3 217/4/3
f 219/3/3 217/3/3 213/3/3
f 219/3/3 218/3/3 217/3/3
f 220/3/3 214/3/3 218/3/3
f 220/3/3 218/3/3 219/3/3
f 224/3/3 222/3/3 221/3/3
f 225/4/3 223/4/3 222/4/3
f 225/3/3 222/3/3 224/3/3
f 226/4/3 223/4/3 225/4/3
f 227/3/3 224/3/3 221/3/3
f 228/3/3 224/3/3 227/3/3
f 229/3/3 224/3/3 228/3/3
f 231/4/3 223/4/3 226/4/3
f 232/3/3 230/3/3 229/3/3
f 232/3/3 229/3/3 228/3/3
f 233/4/3 231/4/3 230/4/3
f 233/3/3 230/3/3 232/3/3
f 234/4/3 223/4/3 231/4/3
f 234/4/3 231/4/3 233/4/3
f 241/5/3 236/5/3 235/5/3
f 242/7/3 237/7/3 236/7/3
f 242/5/3 236/5/3 241/5/3
f 243/5/3 238/5/3 237/5/3
f 243/7/3 237/7/3 242/7/3
f 244/5/3 238/5/3 243/5/3
f 247/10/3 240/10/3 239/10/3
f 248/5/3 241/5/3 240/5/3
f 248/10/3 240/10/3 247/10/3
f 248/5/3 242/5/3 241/5/3
f 249/5/3 242/5/3 248/5/3
f 250/2/3 243/2/3 242/2/3
f 250/5/3 242/5/3 249/5/3
f 251/2/3 243/2/3 250/2/3
f 253/9/3 246/9/3 245/9/3
f 254/9/3 246/9/3 253/9/3
f 255/5/3 252/5/3 251/5/3
f 255/5/3 251/5/3 250/5/3
f 255/5/3 250/5/3 249/5/3
f 256/5/3 252/5/3 255/5/3
f 260/8/3 258/8/3 257/8/3
f 261/9/3 259/9/3 258/9/3
f 261/8/3 258/8/3 260/8/3
f 262/9/3 259/9/3 261/9/3
f 267/8/3 264/8/3 263/8/3
f 268/9/3 265/9/3 264/9/3
f 268/8/3 264/8/3 267/8/3
f 269/8/3 266/8/3 265/8/3
f 269/9/3 265/9/3 268/9/3
f 270/8/3 266/8/3 269/8/3
f 274/10/3 272/10/3 271/10/3
f 275/5/3 273/5/3 272/5/3
f 275/10/3 272/10/3 274/10/3
f 276/5/3 273/5/3 275/5/3
f 279/8/3 278/8/3 277/8/3
f 280/8/3 278/8/3 279/8/3
f 283/9/3 282/9/3 281/9/3
f 284/9/3 282/9/3 283/9/3
f 285/9/4 286/9/4 287/9/4
f 287/9/4 286/9/4 288/9/4
f 289/8/4 290/8/4 291/8/4
f 291/8/4 290/8/4 292/8/4
f 293/10/4 294/10/4 296/10/4
f 294/5/4 295/5/4 297/5/4
f 296/10/4 294/10/4 297/10/4
f 297/5/4 295/5/4 298/5/4
f 299/8/4 300/8/4 303/8/4
f 300/9/4 301/9/4 304/9/4
f 303/8/4 300/8/4 304/8/4
f 301/8/4 302/8/4 305/8/4
f 304/9/4 301/9/4 305/9/4
f 305/8/4 302/8/4 306/8/4
f 307/8/4 308/8/4 310/8/4
f 308/9/4 309/9/4 311/9/4
f 310/8/4 308/8/4 311/8/4
f 311/9/4 309/9/4 312/9/4
f 313/5/4 314/5/4 319/5/4
f 314/7/4 315/7/4 320/7/4
f 319/5/4 314/5/4 320/5/4
f 315/5/4 316/5/4 321/5/4
f 320/7/4 315/7/4 321/7/4
f 321/5/4 316/5/4 322/5/4
f 317/10/4 318/10/4 323/10/4
f 318/5/4 319/5/4 324/5/4
f 323/10/4 318/10/4 324/10/4
f 319/5/4 320/5/4 324/5/4
f 324/5/4 320/5/4 325/5/4
f 320/2/4 321/2/4 326/2/4
f 325/5/4 320/5/4 326/5/4
f 326/2/4 321/2/4 327/2/4
f 327/5/4 328/5/4 331/5/4
f 326/5/4 327/5/4 331/5/4
f 325/5/4 326/5/4 331/5/4
f 331/5/4 328/5/4 332/5/4
f 329/9/4 330/9/4 333/9/4
f 333/9/4 330/9/4 334/9/4
f 335/3/4 336/3/4 338/3/4
f 336/4/4 337/4/4 339/4/4
f 338/3/4 336/3/4 339/3/4
f 339/4/4 337/4/4 340/4/4
f 335/3/4 338/3/4 341/3/4
f 341/3/4 338/3/4 342/3/4
f 342/3/4 338/3/4 343/3/4
f 340/4/4 337/4/4 345/4/4
f 343/3/4 344/3/4 346/3/4
f 342/3/4 343/3/4 346/3/4
f 344/4/4 345/4/4 347/4/4
f 346/3/4 344/3/4 347/3/4
f 345/4/4 337/4/4 348/4/4
f 347/4/4 345/4/4 348/4/4
f 349/3/4 350/3/4 351/3/4
f 351/3/4 350/3/4 352/3/4
f 349/3/4 351/3/4 353/3/4
f 351/4/4 352/4/4 353/4/4
f 352/3/4 350/3/4 354/3/4
f 353/4/4 352/4/4 354/4/4
f 349/3/4 353/3/4 355/3/4
f 353/3/4 354/3/4 355/3/4
f 354/3/4 350/3/4 356/3/4
f 355/3/4 354/3/4 356/3/4
f 357/1/4 358/1/4 359/1/4
f 359/1/4 358/1/4 360/1/4
f 361/9/4 362/9/4 364/9/4
f 362/8/4 363/8/4 365/8/4
f 364/9/4 362/9/4 365/9/4
f 365/8/4 363/8/4 366/8/4
f 369/10/5 368/10/5 367/10/5
f 370/10/5 368/10/5 369/10/5
f 373/10/5 372/10/5 371/10/5
f 374/10/5 372/10/5 373/10/5
f 379/5/5 376/5/5 375/5/5
f 380/5/5 378/5/5 377/5/5
f 381/5/5 379/5/5 375/5/5
f 381/5/5 380/5/5 379/5/5
f 382/5/5 378/5/5 380/5/5
f 382/5/5 380/5/5 381/5/5
f 383/5/5 381/5/5 375/5/5
f 384/5/5 381/5/5 383/5/5
f 385/5/5 378/5/5 382/5/5
f 386/5/5 378/5/5 385/5/5
f 389/1/5 388/1/5 387/1/5
f 390/1/5 388/1/5 389/1/5
f 391/2/5 390/2/5 389/2/5
f 392/2/5 390/2/5 391/2/5
f 395/2/5 394/2/5 393/2/5
f 396/2/5 394/2/5 395/2/5
f 397/1/5 396/1/5 395/1/5
f 398/1/5 396/1/5 397/1/5
f 403/3/5 400/3/5 399/3/5
f 404/3/5 400/3/5 403/3/5
f 405/3/5 400/3/5 404/3/5
f 406/3/5 402/3/5 401/3/5
f 407/3/5 402/3/5 406/3/5
f 408/3/5 402/3/5 407/3/5
f 409/4/5 404/4/5 403/4/5
f 410/4/5 408/4/5 407/4/5
f 411/4/5 409/4/5 403/4/5
f 412/4/5 408/4/5 410/4/5
f 413/3/5 403/3/5 399/3/5
f 413/4/5 411/4/5 403/4/5
f 414/4/5 411/4/5 413/4/5
f 417/4/5 408/4/5 412/4/5
f 418/3/5 402/3/5 408/3/5
f 418/4/5 408/4/5 417/4/5
f 419/3/5 415/3/5 414/3/5
f 419/3/5 413/3/5 399/3/5
f 419/3/5 414/3/5 413/3/5
f 420/3/5 415/3/5 419/3/5
f 421/3/5 417/3/5 416/3/5
f 421/3/5 418/3/5 417/3/5
f 422/3/5 402/3/5 418/3/5
f 422/3/5 418/3/5 421/3/5
f 425/3/5 424/3/5 423/3/5
f 426/3/5 424/3/5 425/3/5
f 429/3/5 428/3/5 427/3/5
f 430/3/5 428/3/5 429/3/5
f 433/9/5 432/9/5 431/9/5
f 434/9/5 432/9/5 433/9/5
f 437/9/5 436/9/5 435/9/5
f 438/9/5 436/9/5 437/9/5
f 441/9/5 440/9/5 439/9/5
f 442/9/5 440/9/5 441/9/5
f 445/9/5 444/9/5 443/9/5
f 446/9/5 444/9/5 445/9/5
f 449/9/5 448/9/5 447/9/5
f 450/9/5 448/9/5 449/9/5
f 451/8/5 450/8/5 449/8/5
f 452/8/5 450/8/5 451/8/5
f 455/8/5 454/8/5 453/8/5
f 456/8/5 454/8/5 455/8/5
f 457/9/5 456/9/5 455/9/5
f 458/9/5 456/9/5 457/9/5
f 459/1/6 460/1/6 461/1/6
f 461/1/6 460/1/6 462/1/6
f 461/2/6 462/2/6 463/2/6
f 463/2/6 462/2/6 464/2/6
f 465/2/6 466/2/6 467/2/6
f 467/2/6 466/2/6 468/2/6
f 467/1/6 468/1/6 469/1/6
f 469/1/6 468/1/6 470/1/6
f 471/3/6 472/3/6 473/3/6
f 473/3/6 472/3/6 474/3/6
f 475/3/6 476/3/6 477/3/6
f 477/3/6 476/3/6 478/3/6
f 479/4/6 480/4/6 481/4/6
f 481/4/6 480/4/6 482/4/6
f 482/4/6 480/4/6 483/4/6
f 483/4/6 480/4/6 484/4/6
f 481/3/6 482/3/6 485/3/6
f 483/3/6 484/3/6 486/3/6
f 486/3/6 484/3/6 487/3/6
f 481/3/6 485/3/6 488/3/6
f 485/3/6 486/3/6 488/3/6
f 488/3/6 486/3/6 489/3/6
f 487/3/6 484/3/6 490/3/6
f 490/3/6 484/3/6 491/3/6
f 488/4/6 489/4/6 492/4/6
f 489/4/6 490/4/6 492/4/6
f 490/4/6 491/4/6 492/4/6
f 492/4/6 491/4/6 493/4/6
f 494/9/6 495/9/6 496/9/6
f 496/9/6 495/9/6 497/9/6
f 496/8/6 497/8/6 498/8/6
f 498/8/6 497/8/6 499/8/6
f 499/8/6 500/8/6 501/8/6
f 501/8/6 500/8/6 502/8/6
f 501/9/6 502/9/6 503/9/6
f 503/9/6 502/9/6 504/9/6
f 505/8/6 506/8/6 507/8/6
f 507/8/6 506/8/6 508/8/6
f 507/9/6 508/9/6 509/9/6
f 509/9/6 508/9/6 510/9/6
f 509/8/6 510/8/6 511/8/6
f 511/8/6 510/8/6 512/8/6
f 513/8/6 514/8/6 515/8/6
f 515/8/6 514/8/6 516/8/6
f 515/9/6 516/9/6 517/9/6
f 517/9/6 516/9/6 518/9/6
f 517/8/6 518/8/6 519/8/6
f 519/8/6 518/8/6 520/8/6
